<svg xmlns="http://www.w3.org/2000/svg" xmlns:xlink="http://www.w3.org/1999/xlink" version="1.1" class="marks" width="697" height="588" viewBox="0 0 697 588" style="color-scheme: dark;"><defs><clipPath id="clip11"><rect x="0" y="0" width="0" height="0"/></clipPath></defs><rect x="0" y="0" width="697" height="588" fill="#000" stroke="none" role="presentation" aria-hidden="true" data-vega-export-background="true"/><g role="presentation" transform="translate(0, 24)"><g transform="translate(32, 0)"><text x="0" y="0" fill="#fff" font-family="OpenAI Sans, OpenAI Sans Variable Scripts, sans-serif" font-size="16" font-weight="bold" dominant-baseline="text-before-edge" text-anchor="start"><tspan x="0" dy="0">Terminal-Bench 4.0</tspan></text></g><g role="presentation" aria-hidden="true" focusable="false" transform="translate(645, 0) scale(0.1282051282051282)"><path d="M59.733 56.192v-14.57c0-1.227.46-2.148 1.533-2.76l29.293-16.87c3.988-2.3 8.742-3.374 13.649-3.374 18.404 0 30.06 14.263 30.06 29.446 0 1.073 0 2.3-.154 3.527l-30.366-17.79q-2.76-1.611-5.521 0zm68.4 56.745V78.122c0-2.147-.921-3.681-2.761-4.754L86.878 50.977l12.576-7.209c1.073-.613 1.994-.613 3.067 0l29.293 16.87c8.436 4.908 14.109 15.337 14.109 25.458 0 11.655-6.9 22.391-17.79 26.839zM50.684 82.264l-12.576-7.361c-1.073-.613-1.533-1.534-1.533-2.76v-33.74c0-16.41 12.576-28.833 29.6-28.833 6.441 0 12.421 2.147 17.484 5.981L53.446 33.035c-1.84 1.073-2.76 2.607-2.76 4.755v44.475zm27.07 15.643L59.731 87.785v-21.47l18.021-10.122 18.02 10.122v21.47zm11.578 46.623c-6.442 0-12.422-2.148-17.484-5.981l30.212-17.485c1.84-1.073 2.761-2.606 2.761-4.754V71.834l12.73 7.361c1.073.613 1.533 1.534 1.533 2.761v33.74c0 16.409-12.73 28.833-29.752 28.833zm-36.348-34.2L23.691 93.46c-8.436-4.908-14.11-15.336-14.11-25.458 0-11.809 7.056-22.391 17.944-26.839V76.13c0 2.148.92 3.681 2.76 4.754l38.342 22.237-12.576 7.209c-1.073.613-1.994.613-3.067 0m-1.686 25.152c-17.33 0-30.06-13.037-30.06-29.14 0-1.227.154-2.454.307-3.681l30.212 17.484q2.761 1.61 5.521 0l38.494-22.237v14.57c0 1.227-.46 2.147-1.533 2.76l-29.293 16.87c-3.988 2.3-8.742 3.374-13.65 3.374zm38.034 18.249c18.557 0 34.046-13.189 37.575-30.673 17.176-4.448 28.219-20.551 28.219-36.96 0-10.736-4.601-21.164-12.883-28.68.767-3.22 1.228-6.441 1.228-9.66 0-21.931-17.791-38.342-38.342-38.342-4.14 0-8.128.612-12.116 1.993C86.111 4.661 76.603.367 66.174.367 47.617.367 32.128 13.556 28.6 31.04 11.423 35.488.381 51.59.381 68c0 10.737 4.6 21.165 12.882 28.68-.767 3.22-1.227 6.441-1.227 9.661 0 21.93 17.79 38.341 38.342 38.341 4.14 0 8.127-.612 12.115-1.993 6.9 6.748 16.41 11.042 26.84 11.042" fill="#fff"/></g></g><g transform="translate(32, 68)"><g data-dotcom-chart-export-legend="" data-legend-export-layout="css" role="group" aria-label="Legend"><svg aria-hidden="true" data-legend-symbol="" focusable="false" width="16" height="16" viewBox="0 0 16 16" overflow="visible" x="0" y="2"><path d="M8,2.2939753969088423L9.416254862790453,6.653138471243823L14,6.653138471243823L10.291872568604774,9.346861528756177L11.708127431395226,13.706024603091159L8,11.012301545578804L4.291872568604774,13.706024603091159L5.708127431395226,9.346861528756177L2,6.653138471243823L6.583745137209546,6.653138471243823Z" fill="#63a8f8" stroke="#63a8f8" stroke-width="1" opacity="1" fill-opacity="1" stroke-opacity="1"/></svg><text x="22" y="15.199999809265137" font-family="OpenAI Sans, OpenAI Sans Variable Scripts, sans-serif" font-size="14" font-weight="normal" fill="#fff" opacity="1" direction="ltr" aria-label="GPT-6 Astra" text-anchor="start" dominant-baseline="alphabetic" style="font-family: &quot;OpenAI Sans&quot;, &quot;OpenAI Sans Variable Scripts&quot;, sans-serif; font-size: 14px; font-weight: 400; font-style: normal; font-stretch: 100%; font-kerning: auto; font-optical-sizing: auto; font-feature-settings: &quot;calt&quot;, &quot;liga&quot;; font-variation-settings: normal; font-variant: normal; font-synthesis: weight style small-caps; letter-spacing: -0.17px; word-spacing: 0px; text-rendering: auto; text-transform: none;"><tspan x="22" y="15.199999809265137">GPT-6 Astra</tspan></text><svg aria-hidden="true" data-legend-symbol="" focusable="false" width="16" height="16" viewBox="0 0 16 16" overflow="visible" x="133.53750610351562" y="2"><path d="M14,8A6,6,0,1,1,2,8A6,6,0,1,1,14,8" fill="#173e76" stroke="#173e76" stroke-width="1" opacity="1" fill-opacity="1" stroke-opacity="1"/></svg><text x="155.53750610351562" y="15.199999809265137" font-family="OpenAI Sans, OpenAI Sans Variable Scripts, sans-serif" font-size="14" font-weight="normal" fill="#fff" opacity="1" direction="ltr" aria-label="GPT-5.6 Sol" text-anchor="start" dominant-baseline="alphabetic" style="font-family: &quot;OpenAI Sans&quot;, &quot;OpenAI Sans Variable Scripts&quot;, sans-serif; font-size: 14px; font-weight: 400; font-style: normal; font-stretch: 100%; font-kerning: auto; font-optical-sizing: auto; font-feature-settings: &quot;calt&quot;, &quot;liga&quot;; font-variation-settings: normal; font-variant: normal; font-synthesis: weight style small-caps; letter-spacing: -0.17px; word-spacing: 0px; text-rendering: auto; text-transform: none;"><tspan x="155.53750610351562" y="15.199999809265137">GPT-5.6 Sol</tspan></text><svg aria-hidden="true" data-legend-symbol="" focusable="false" width="16" height="16" viewBox="0 0 16 16" overflow="visible" x="249.02500915527344" y="2"><path d="M2,2L14,2L14,14L2,14Z" fill="#ef8b57" stroke="#ef8b57" stroke-width="1" opacity="0.5" fill-opacity="1" stroke-opacity="1"/></svg><text x="271.0249938964844" y="15.199999809265137" font-family="OpenAI Sans, OpenAI Sans Variable Scripts, sans-serif" font-size="14" font-weight="normal" fill="#fff" opacity="1" direction="ltr" aria-label="Claude Fable 5.1" text-anchor="start" dominant-baseline="alphabetic" style="font-family: &quot;OpenAI Sans&quot;, &quot;OpenAI Sans Variable Scripts&quot;, sans-serif; font-size: 14px; font-weight: 400; font-style: normal; font-stretch: 100%; font-kerning: auto; font-optical-sizing: auto; font-feature-settings: &quot;calt&quot;, &quot;liga&quot;; font-variation-settings: normal; font-variant: normal; font-synthesis: weight style small-caps; letter-spacing: -0.17px; word-spacing: 0px; text-rendering: auto; text-transform: none;"><tspan x="271.0249938964844" y="15.199999809265137">Claude Fable 5.1</tspan></text><svg aria-hidden="true" data-legend-symbol="" focusable="false" width="16" height="16" viewBox="0 0 16 16" overflow="visible" x="391.4624938964844" y="2"><path d="M2,8L8,2L14,8L8,14Z" fill="#d25e28" stroke="#d25e28" stroke-width="1" opacity="0.5" fill-opacity="1" stroke-opacity="1"/></svg><text x="413.4624938964844" y="15.199999809265137" font-family="OpenAI Sans, OpenAI Sans Variable Scripts, sans-serif" font-size="14" font-weight="normal" fill="#fff" opacity="1" direction="ltr" aria-label="Claude Fable 5" text-anchor="start" dominant-baseline="alphabetic" style="font-family: &quot;OpenAI Sans&quot;, &quot;OpenAI Sans Variable Scripts&quot;, sans-serif; font-size: 14px; font-weight: 400; font-style: normal; font-stretch: 100%; font-kerning: auto; font-optical-sizing: auto; font-feature-settings: &quot;calt&quot;, &quot;liga&quot;; font-variation-settings: normal; font-variant: normal; font-synthesis: weight style small-caps; letter-spacing: -0.17px; word-spacing: 0px; text-rendering: auto; text-transform: none;"><tspan x="413.4624938964844" y="15.199999809265137">Claude Fable 5</tspan></text><svg aria-hidden="true" data-legend-symbol="" focusable="false" width="16" height="16" viewBox="0 0 16 16" overflow="visible" x="0" y="28"><path d="M8,2.803847577293368L2,13.196152422706632L14,13.196152422706632Z" fill="#d25e28" stroke="#d25e28" stroke-width="1" opacity="0.5" fill-opacity="1" stroke-opacity="1"/></svg><text x="22" y="41.20000076293945" font-family="OpenAI Sans, OpenAI Sans Variable Scripts, sans-serif" font-size="14" font-weight="normal" fill="#fff" opacity="1" direction="ltr" aria-label="Claude Opus 5" text-anchor="start" dominant-baseline="alphabetic" style="font-family: &quot;OpenAI Sans&quot;, &quot;OpenAI Sans Variable Scripts&quot;, sans-serif; font-size: 14px; font-weight: 400; font-style: normal; font-stretch: 100%; font-kerning: auto; font-optical-sizing: auto; font-feature-settings: &quot;calt&quot;, &quot;liga&quot;; font-variation-settings: normal; font-variant: normal; font-synthesis: weight style small-caps; letter-spacing: -0.17px; word-spacing: 0px; text-rendering: auto; text-transform: none;"><tspan x="22" y="41.20000076293945">Claude Opus 5</tspan></text><svg aria-hidden="true" data-legend-symbol="" focusable="false" width="28" height="16" viewBox="0 0 28 16" overflow="visible" x="0" y="68"><path d="M2,8L26,8" fill="transparent" stroke="#888" stroke-width="1" stroke-dasharray="8 6" opacity="1" fill-opacity="1" stroke-opacity="1"/></svg><text x="34" y="81.20000457763672" font-family="OpenAI Sans, OpenAI Sans Variable Scripts, sans-serif" font-size="14" font-weight="normal" fill="#fff" opacity="1" direction="ltr" aria-label="Reported score only" text-anchor="start" dominant-baseline="alphabetic" style="font-family: &quot;OpenAI Sans&quot;, &quot;OpenAI Sans Variable Scripts&quot;, sans-serif; font-size: 14px; font-weight: 400; font-style: normal; font-stretch: 100%; font-kerning: auto; font-optical-sizing: auto; font-feature-settings: &quot;calt&quot;, &quot;liga&quot;; font-variation-settings: normal; font-variant: normal; font-synthesis: weight style small-caps; letter-spacing: -0.17px; word-spacing: 0px; text-rendering: auto; text-transform: none;"><tspan x="34" y="81.20000457763672">Reported score only</tspan></text></g><g transform="translate(0, 98)"><g fill="none" stroke-miterlimit="10" transform="translate(69,0)"><g class="mark-group role-frame root" role="graphics-object" aria-roledescription="group mark container"><g transform="translate(0,0)"><path class="background" aria-hidden="true" d="M0.5,0.5h514v360h-514Z"/><g><g class="mark-group role-axis" role="graphics-symbol" aria-roledescription="axis" aria-label="X-axis for a linear scale with values from 0 to 250000"><g transform="translate(0.5,360.5)"><path class="background" aria-hidden="true" d="M0,0h0v0h0Z" pointer-events="none"/><g><g class="mark-rule role-axis-tick" pointer-events="none"><line transform="translate(0,0)" x2="0" y2="5" stroke="#fff" stroke-width="1" opacity="1"/><line transform="translate(103,0)" x2="0" y2="5" stroke="#fff" stroke-width="1" opacity="1"/><line transform="translate(206,0)" x2="0" y2="5" stroke="#fff" stroke-width="1" opacity="1"/><line transform="translate(308,0)" x2="0" y2="5" stroke="#fff" stroke-width="1" opacity="1"/><line transform="translate(411,0)" x2="0" y2="5" stroke="#fff" stroke-width="1" opacity="1"/><line transform="translate(514,0)" x2="0" y2="5" stroke="#fff" stroke-width="1" opacity="1"/></g><g class="mark-text role-axis-label" pointer-events="none"><text text-anchor="middle" transform="translate(0,24)" font-family="SF Mono, monospace" font-size="12px" font-weight="normal" fill="#fff" opacity="1">0K</text><text text-anchor="middle" transform="translate(102.80000000000001,24)" font-family="SF Mono, monospace" font-size="12px" font-weight="normal" fill="#fff" opacity="1">50K</text><text text-anchor="middle" transform="translate(205.60000000000002,24)" font-family="SF Mono, monospace" font-size="12px" font-weight="normal" fill="#fff" opacity="1">100K</text><text text-anchor="middle" transform="translate(308.4,24)" font-family="SF Mono, monospace" font-size="12px" font-weight="normal" fill="#fff" opacity="1">150K</text><text text-anchor="middle" transform="translate(411.20000000000005,24)" font-family="SF Mono, monospace" font-size="12px" font-weight="normal" fill="#fff" opacity="1">200K</text><text text-anchor="middle" transform="translate(514,24)" font-family="SF Mono, monospace" font-size="12px" font-weight="normal" fill="#fff" opacity="1">250K</text></g><g class="mark-rule role-axis-domain" pointer-events="none"><line transform="translate(0,0)" x2="514" y2="0" stroke="#fff" stroke-width="1" opacity="1"/></g></g><path class="foreground" aria-hidden="true" d="" pointer-events="none" display="none"/></g></g><g class="mark-group role-axis" role="graphics-symbol" aria-roledescription="axis" aria-label="Y-axis titled 'Accuracy' for a linear scale with values from 4% to 62%"><g transform="translate(0.5,0.5)"><path class="background" aria-hidden="true" d="M0,0h0v0h0Z" pointer-events="none"/><g><g class="mark-rule role-axis-tick" pointer-events="none"><line transform="translate(0,322)" x2="-5" y2="0" stroke="#fff" stroke-width="1" opacity="1"/><line transform="translate(0,260)" x2="-5" y2="0" stroke="#fff" stroke-width="1" opacity="1"/><line transform="translate(0,198)" x2="-5" y2="0" stroke="#fff" stroke-width="1" opacity="1"/><line transform="translate(0,136)" x2="-5" y2="0" stroke="#fff" stroke-width="1" opacity="1"/><line transform="translate(0,74)" x2="-5" y2="0" stroke="#fff" stroke-width="1" opacity="1"/><line transform="translate(0,12)" x2="-5" y2="0" stroke="#fff" stroke-width="1" opacity="1"/></g><g class="mark-text role-axis-label" pointer-events="none"><text text-anchor="end" transform="translate(-15,326.0062695937372)" font-family="SF Mono, monospace" font-size="12px" font-weight="normal" fill="#fff" opacity="1">10%</text><text text-anchor="end" transform="translate(-15,263.9373040762325)" font-family="SF Mono, monospace" font-size="12px" font-weight="normal" fill="#fff" opacity="1">20%</text><text text-anchor="end" transform="translate(-15,201.86833855872786)" font-family="SF Mono, monospace" font-size="12px" font-weight="normal" fill="#fff" opacity="1">30%</text><text text-anchor="end" transform="translate(-15,139.7993730412231)" font-family="SF Mono, monospace" font-size="12px" font-weight="normal" fill="#fff" opacity="1">40%</text><text text-anchor="end" transform="translate(-15,77.73040752371841)" font-family="SF Mono, monospace" font-size="12px" font-weight="normal" fill="#fff" opacity="1">50%</text><text text-anchor="end" transform="translate(-15,15.661442006213726)" font-family="SF Mono, monospace" font-size="12px" font-weight="normal" fill="#fff" opacity="1">60%</text></g><g class="mark-rule role-axis-domain" pointer-events="none"><line transform="translate(0,360)" x2="0" y2="-360" stroke="#fff" stroke-width="1" opacity="1"/></g><g class="mark-text role-axis-title" pointer-events="none"><text text-anchor="middle" transform="translate(-54.79296875,180) rotate(-90) translate(0,-3)" font-family="OpenAI Sans, OpenAI Sans Variable Scripts, sans-serif" font-size="14px" font-weight="normal" fill="#fff" opacity="1">Accuracy</text></g></g><path class="foreground" aria-hidden="true" d="" pointer-events="none" display="none"/></g></g><g class="mark-rule role-mark continuous_hover_opus_reference_rule_marks" aria-hidden="true"/><g class="mark-rule role-mark continuous_hover_fable5_reference_rule_marks" aria-hidden="true"/><g class="mark-rule role-mark continuous_hover_fable_reference_rule_marks" aria-hidden="true"><line transform="translate(0,37.73040752356563)" x2="514" y2="0" stroke="#63a8f8" stroke-width="11.579088145896659" stroke-dasharray="1,0" opacity="0"/></g><g class="mark-rule role-mark opus_reference_rule_marks" role="graphics-symbol" aria-roledescription="rule mark container"/><g class="mark-rule role-mark fable5_reference_rule_marks" role="graphics-symbol" aria-roledescription="rule mark container"/><g class="mark-rule role-mark fable_reference_rule_marks" role="graphics-object" aria-roledescription="rule mark container"><line aria-label="score: 0.56; chart_dom_model: Claude Fable 5.1; chart_legend_model: Claude Fable 5.1; chart_dom_report_status: Reported score only; Model: Claude Fable 5.1; Accuracy: 55.8%" role="graphics-symbol" aria-roledescription="rule mark" transform="translate(0,37.73040752356563)" x2="514" y2="0" stroke="#ef8b57" stroke-width="1" stroke-dasharray="8,6" opacity="0.5"/></g><g class="mark-group role-scope layer_6_pathgroup" role="graphics-object" aria-roledescription="group mark container"><g transform="translate(0,0)"><path class="background" aria-hidden="true" d="M0,0h514v360h-514Z"/><g><g class="mark-line role-mark layer_6_marks" role="graphics-object" aria-roledescription="line mark container"><path aria-label="x_value: 180320.52; score: 45%; chart_dom_model: Claude Fable 5; chart_legend_model: Claude Fable 5; chart_dom_report_status: __measured_data__; pointOrder: 5; model: Claude Fable 5" role="graphics-symbol" aria-roledescription="line mark" d="M370.739,107.586Z" stroke="#d25e28" stroke-width="2" stroke-dasharray="1,0" opacity="0.5"/></g></g><path class="foreground" aria-hidden="true" d="" display="none"/></g><g transform="translate(0,0)"><path class="background" aria-hidden="true" d="M0,0h514v360h-514Z"/><g><g class="mark-line role-mark layer_6_marks" role="graphics-object" aria-roledescription="line mark container"><path aria-label="x_value: 14843.54; score: 8%; chart_dom_model: GPT-5.6 Sol; chart_legend_model: GPT-5.6 Sol; chart_dom_report_status: __measured_data__; pointOrder: 1; model: GPT-5.6 Sol" role="graphics-symbol" aria-roledescription="line mark" d="M30.518,335.172L58.326,254.295L79.761,222.32L107.481,207.273L148.066,152.727" stroke="#173e76" stroke-width="2" stroke-dasharray="1,0" opacity="1"/></g></g><path class="foreground" aria-hidden="true" d="" display="none"/></g></g><g class="mark-symbol role-mark feedback_points_4_metric_0_marks" role="graphics-symbol" aria-roledescription="symbol mark container"/><g class="mark-symbol role-mark feedback_points_4_metric_1_marks" role="graphics-symbol" aria-roledescription="symbol mark container"/><g class="mark-symbol role-mark feedback_points_4_metric_2_marks" role="graphics-object" aria-roledescription="symbol mark container"><path aria-label="x_value: 180320.52; score: 0.45; chart_dom_model: Claude Fable 5; chart_legend_model: Claude Fable 5; chart_dom_report_status: __measured_data__; Model: Claude Fable 5; Reasoning effort: Max; Output tokens: 180,320.5; Accuracy: 44.5%" role="graphics-symbol" aria-roledescription="point" transform="translate(370.73897915151514,107.58620689690284)" d="M-5.469,0L0,-5.469L5.469,0L0,5.469Z" fill="#d25e28" stroke-width="1.5" stroke-dasharray="1,0" opacity="0.5"/><path aria-label="x_value: 14843.54; score: 0.08; chart_dom_model: GPT-5.6 Sol; chart_legend_model: GPT-5.6 Sol; chart_dom_report_status: __measured_data__; Model: GPT-5.6 Sol; Reasoning effort: Low; Output tokens: 14,843.5; Accuracy: 7.9%" role="graphics-symbol" aria-roledescription="point" transform="translate(30.518310763635615,335.17241379310343)" d="M5,0A5,5,0,1,1,-5,0A5,5,0,1,1,5,0" fill="#173e76" stroke-width="1.5" stroke-dasharray="1,0" opacity="1"/><path aria-label="x_value: 28368.58; score: 0.21; chart_dom_model: GPT-5.6 Sol; chart_legend_model: GPT-5.6 Sol; chart_dom_report_status: __measured_data__; Model: GPT-5.6 Sol; Reasoning effort: Medium; Output tokens: 28,368.6; Accuracy: 20.9%" role="graphics-symbol" aria-roledescription="point" transform="translate(58.325804218182185,254.29467084793274)" d="M5,0A5,5,0,1,1,-5,0A5,5,0,1,1,5,0" fill="#173e76" stroke-width="1.5" stroke-dasharray="1,0" opacity="1"/><path aria-label="x_value: 38794.13; score: 0.26; chart_dom_model: GPT-5.6 Sol; chart_legend_model: GPT-5.6 Sol; chart_dom_report_status: __measured_data__; Model: GPT-5.6 Sol; Reasoning effort: High; Output tokens: 38,794.1; Accuracy: 26.1%" role="graphics-symbol" aria-roledescription="point" transform="translate(79.76073190302968,222.31974921469362)" d="M5,0A5,5,0,1,1,-5,0A5,5,0,1,1,5,0" fill="#173e76" stroke-width="1.5" stroke-dasharray="1,0" opacity="1"/><path aria-label="x_value: 52276.59; score: 0.28; chart_dom_model: GPT-5.6 Sol; chart_legend_model: GPT-5.6 Sol; chart_dom_report_status: __measured_data__; Model: GPT-5.6 Sol; Reasoning effort: Xhigh; Output tokens: 52,276.6; Accuracy: 28.5%" role="graphics-symbol" aria-roledescription="point" transform="translate(107.48067713939406,207.27272727256081)" d="M5,0A5,5,0,1,1,-5,0A5,5,0,1,1,5,0" fill="#173e76" stroke-width="1.5" stroke-dasharray="1,0" opacity="1"/><path aria-label="x_value: 72016.72; score: 0.37; chart_dom_model: GPT-5.6 Sol; chart_legend_model: GPT-5.6 Sol; chart_dom_report_status: __measured_data__; Model: GPT-5.6 Sol; Reasoning effort: Max; Output tokens: 72,016.7; Accuracy: 37.3%" role="graphics-symbol" aria-roledescription="point" transform="translate(148.0663788121212,152.72727272781532)" d="M5,0A5,5,0,1,1,-5,0A5,5,0,1,1,5,0" fill="#173e76" stroke-width="1.5" stroke-dasharray="1,0" opacity="1"/></g><g class="mark-text role-mark layer_10_marks" role="graphics-object" aria-roledescription="text mark container"><text aria-label="axis_title: Output tokens" role="graphics-symbol" aria-roledescription="text mark" text-anchor="middle" transform="translate(257,419)" font-family="OpenAI Sans, OpenAI Sans Variable Scripts, sans-serif" font-size="14px" fill="#fff">Output tokens</text></g><g class="mark-symbol role-mark fable_reference_endpoint_symbol_marks" role="graphics-object" aria-roledescription="symbol mark container"><path aria-label="score: 0.56; chart_dom_model: Claude Fable 5.1; chart_legend_model: Claude Fable 5.1; chart_dom_report_status: Reported score only; Model: Claude Fable 5.1; Accuracy: 55.8%" role="graphics-symbol" aria-roledescription="point" transform="translate(544,37.73040752356563)" d="M-4.375,-4.375h8.75v8.75h-8.75Z" fill="#ef8b57" stroke-width="1.5" stroke-dasharray="8,6" opacity="0.5"/></g><g class="mark-symbol role-mark fable5_reference_endpoint_symbol_marks" role="graphics-symbol" aria-roledescription="symbol mark container"/><g class="mark-symbol role-mark opus_measured_points_metric_0_marks" role="graphics-symbol" aria-roledescription="symbol mark container"/><g class="mark-symbol role-mark opus_measured_points_metric_1_marks" role="graphics-symbol" aria-roledescription="symbol mark container"/><g class="mark-symbol role-mark opus_measured_points_metric_2_marks" role="graphics-object" aria-roledescription="symbol mark container"><path aria-label="x_value: 201639.09; score: 0.53; chart_dom_model: Claude Opus 5; chart_legend_model: Claude Opus 5; chart_dom_report_status: __measured_data__; Model: Claude Opus 5; Reasoning effort: Max; Output tokens: 201,639.1; Accuracy: 52.6%" role="graphics-symbol" aria-roledescription="point" transform="translate(414.5699646787879,57.694352602782516)" d="M0,-4.33L-5,4.33L5,4.33Z" fill="#d25e28" stroke-width="1.5" stroke-dasharray="1,0" opacity="0.5"/></g><g class="mark-symbol role-mark opus_reference_endpoint_symbol_marks" role="graphics-symbol" aria-roledescription="symbol mark container"/><g class="mark-text role-mark direct_fable51_label_hover_view_0_marks" role="graphics-object" aria-roledescription="text mark container"/><g class="mark-text role-mark direct_fable51_label_hover_view_1_marks" role="graphics-object" aria-roledescription="text mark container"/><g class="mark-text role-mark direct_fable51_label_hover_view_2_marks" role="graphics-object" aria-roledescription="text mark container"/><g class="mark-text role-mark direct_fable5_label_hover_view_0_marks" role="graphics-object" aria-roledescription="text mark container"/><g class="mark-text role-mark direct_fable5_label_hover_view_1_marks" role="graphics-object" aria-roledescription="text mark container"/><g class="mark-text role-mark direct_fable5_label_hover_view_2_marks" role="graphics-object" aria-roledescription="text mark container"/><g class="mark-text role-mark direct_opus5_label_hover_view_0_marks" role="graphics-object" aria-roledescription="text mark container"/><g class="mark-text role-mark direct_opus5_label_hover_view_1_marks" role="graphics-object" aria-roledescription="text mark container"/><g class="mark-text role-mark direct_opus5_label_hover_view_2_marks" role="graphics-object" aria-roledescription="text mark container"/><g class="mark-rule role-mark opus_reference_rule_astra_foreground_marks" role="graphics-symbol" aria-roledescription="rule mark container"/><g class="mark-rule role-mark fable5_reference_rule_astra_foreground_marks" role="graphics-symbol" aria-roledescription="rule mark container"/><g class="mark-rule role-mark fable_reference_rule_astra_foreground_marks" role="graphics-symbol" aria-roledescription="rule mark container"/><g class="mark-group role-scope layer_23_pathgroup" role="graphics-object" aria-roledescription="group mark container"><g transform="translate(0,0)"><path class="background" aria-hidden="true" d="M0,0h514v360h-514Z"/><g><g class="mark-line role-mark layer_23_marks" role="graphics-object" aria-roledescription="line mark container"><path aria-label="x_value: 24201.62; score: 0.5; chart_dom_model: GPT-6 Astra; chart_legend_model: GPT-6 Astra; chart_dom_report_status: __measured_data__; pointOrder: 1; model: GPT-6 Astra" role="graphics-symbol" aria-roledescription="line mark" d="M49.759,75.611L67.959,49.279L85.484,24.828L93.952,26.708L148.57,32.351" stroke="#63a8f8" stroke-width="2" stroke-dasharray="1,0" opacity="1"/></g></g><path class="foreground" aria-hidden="true" d="" display="none"/></g></g><g class="mark-symbol role-mark feedback_points_4_metric_0_astra_foreground_marks" role="graphics-symbol" aria-roledescription="symbol mark container"/><g class="mark-symbol role-mark feedback_points_4_metric_1_astra_foreground_marks" role="graphics-symbol" aria-roledescription="symbol mark container"/><g class="mark-symbol role-mark feedback_points_4_metric_2_astra_foreground_marks" role="graphics-object" aria-roledescription="symbol mark container"><path aria-label="x_value: 24201.62; score: 0.5; chart_dom_model: GPT-6 Astra; chart_legend_model: GPT-6 Astra; chart_dom_report_status: __measured_data__; Model: GPT-6 Astra; Reasoning effort: Low; Output tokens: 24,201.6; Accuracy: 49.7%" role="graphics-symbol" aria-roledescription="point" transform="translate(49.758539442424244,75.61128526667315)" d="M0,-7.906L1.775,-2.443L7.519,-2.443L2.872,0.933L4.647,6.396L0,3.02L-4.647,6.396L-2.872,0.933L-7.519,-2.443L-1.775,-2.443Z" fill="#63a8f8" stroke-width="1.5" stroke-dasharray="1,0" opacity="1"/><path aria-label="x_value: 33054.17; score: 0.54; chart_dom_model: GPT-6 Astra; chart_legend_model: GPT-6 Astra; chart_dom_report_status: __measured_data__; Model: GPT-6 Astra; Reasoning effort: Medium; Output tokens: 33,054.2; Accuracy: 53.9%" role="graphics-symbol" aria-roledescription="point" transform="translate(67.95936666666665,49.27899686530743)" d="M0,-7.906L1.775,-2.443L7.519,-2.443L2.872,0.933L4.647,6.396L0,3.02L-4.647,6.396L-2.872,0.933L-7.519,-2.443L-1.775,-2.443Z" fill="#63a8f8" stroke-width="1.5" stroke-dasharray="1,0" opacity="1"/><path aria-label="x_value: 41577.9; score: 0.58; chart_dom_model: GPT-6 Astra; chart_legend_model: GPT-6 Astra; chart_dom_report_status: __measured_data__; Model: GPT-6 Astra; Reasoning effort: High; Output tokens: 41,577.9; Accuracy: 57.9%" role="graphics-symbol" aria-roledescription="point" transform="translate(85.48415616969697,24.82758620689652)" d="M0,-7.906L1.775,-2.443L7.519,-2.443L2.872,0.933L4.647,6.396L0,3.02L-4.647,6.396L-2.872,0.933L-7.519,-2.443L-1.775,-2.443Z" fill="#63a8f8" stroke-width="1.5" stroke-dasharray="1,0" opacity="1"/><path aria-label="x_value: 45696.63; score: 0.58; chart_dom_model: GPT-6 Astra; chart_legend_model: GPT-6 Astra; chart_dom_report_status: __measured_data__; Model: GPT-6 Astra; Reasoning effort: Xhigh; Output tokens: 45,696.6; Accuracy: 57.6%" role="graphics-symbol" aria-roledescription="point" transform="translate(93.95227813333334,26.708463949851165)" d="M0,-7.906L1.775,-2.443L7.519,-2.443L2.872,0.933L4.647,6.396L0,3.02L-4.647,6.396L-2.872,0.933L-7.519,-2.443L-1.775,-2.443Z" fill="#63a8f8" stroke-width="1.5" stroke-dasharray="1,0" opacity="1"/><path aria-label="x_value: 72261.48; score: 0.57; chart_dom_model: GPT-6 Astra; chart_legend_model: GPT-6 Astra; chart_dom_report_status: __measured_data__; Model: GPT-6 Astra; Reasoning effort: Max; Output tokens: 72,261.5; Accuracy: 56.7%" role="graphics-symbol" aria-roledescription="point" transform="translate(148.56959415757575,32.351097178715264)" d="M0,-7.906L1.775,-2.443L7.519,-2.443L2.872,0.933L4.647,6.396L0,3.02L-4.647,6.396L-2.872,0.933L-7.519,-2.443L-1.775,-2.443Z" fill="#63a8f8" stroke-width="1.5" stroke-dasharray="1,0" opacity="1"/></g><g class="mark-symbol role-mark fable_reference_endpoint_symbol_astra_foreground_marks" role="graphics-symbol" aria-roledescription="symbol mark container"/><g class="mark-symbol role-mark fable5_reference_endpoint_symbol_astra_foreground_marks" role="graphics-symbol" aria-roledescription="symbol mark container"/><g class="mark-symbol role-mark opus_measured_points_metric_0_astra_foreground_marks" role="graphics-symbol" aria-roledescription="symbol mark container"/><g class="mark-symbol role-mark opus_measured_points_metric_1_astra_foreground_marks" role="graphics-symbol" aria-roledescription="symbol mark container"/><g class="mark-symbol role-mark opus_measured_points_metric_2_astra_foreground_marks" role="graphics-symbol" aria-roledescription="symbol mark container"/><g class="mark-symbol role-mark opus_reference_endpoint_symbol_astra_foreground_marks" role="graphics-symbol" aria-roledescription="symbol mark container"/></g><path class="foreground" aria-hidden="true" d="" display="none"/></g></g></g></g></g></svg>